<?xml version="1.0" standalone="no"?>
<!DOCTYPE svg PUBLIC "-//W3C//DTD SVG 20010904//EN"
 "http://www.w3.org/TR/2001/REC-SVG-20010904/DTD/svg10.dtd">
<svg version="1.0" xmlns="http://www.w3.org/2000/svg"
 width="640.000000pt" height="640.000000pt" viewBox="0 0 640.000000 640.000000"
 preserveAspectRatio="xMidYMid meet">
<metadata>
Created by potrace 1.14, written by Peter Selinger 2001-2017
</metadata>
<g transform="translate(0.000000,640.000000) scale(0.100000,-0.100000)"
fill="#000000" stroke="none">
<path d="M2807 6304 c-3 -4 -27 -10 -53 -15 -51 -10 -90 -39 -106 -79 -5 -14
-12 -144 -14 -290 -2 -146 -8 -298 -14 -338 -5 -40 -7 -88 -4 -107 3 -19 2
-35 -2 -35 -3 0 -23 17 -43 38 -105 106 -181 166 -261 206 -47 23 -98 50 -113
60 -16 11 -76 37 -135 59 -192 71 -290 57 -305 -43 -6 -39 -49 -54 -157 -55
-52 -1 -105 -6 -116 -13 -12 -6 -24 -9 -26 -6 -3 2 -11 -2 -18 -11 -7 -8 -17
-15 -23 -15 -5 0 -15 -7 -21 -15 -11 -14 -37 -22 -105 -31 -63 -9 -132 -56
-241 -165 -46 -47 -56 -63 -58 -95 -6 -84 -9 -90 -78 -160 -39 -38 -87 -80
-107 -94 -42 -29 -47 -38 -48 -106 -2 -82 61 -245 146 -379 18 -27 52 -84 75
-124 24 -41 61 -94 82 -118 22 -23 37 -47 33 -53 -3 -6 -12 -7 -18 -3 -36 22
-179 39 -311 37 -139 -1 -317 -31 -332 -55 -3 -5 -12 -9 -20 -9 -8 0 -33 -13
-56 -30 -22 -16 -47 -30 -53 -30 -16 0 -89 -79 -109 -117 -8 -16 -30 -40 -48
-52 -37 -26 -65 -79 -67 -129 -1 -21 -11 -42 -29 -60 -24 -23 -28 -34 -26 -72
1 -26 -5 -56 -13 -71 -14 -23 -14 -29 0 -55 10 -19 13 -46 10 -80 -5 -53 14
-110 42 -120 8 -3 18 -38 25 -92 15 -102 28 -132 74 -167 43 -33 126 -75 149
-75 9 0 17 -7 17 -15 0 -9 -8 -19 -17 -22 -10 -4 -27 -17 -38 -29 -11 -13 -51
-47 -90 -77 -138 -106 -163 -193 -93 -331 22 -44 49 -72 78 -81 22 -7 30 -38
35 -126 4 -80 28 -132 81 -175 43 -34 96 -64 116 -64 7 0 21 -7 31 -15 18 -13
18 -16 2 -72 -52 -177 -21 -309 89 -374 56 -34 54 -30 72 -128 3 -13 10 -34
17 -45 11 -21 13 -27 16 -46 0 -5 9 -10 19 -10 14 0 197 58 272 86 8 3 15 5
15 5 0 -1 31 10 69 24 93 34 100 33 91 -7 -24 -113 0 -211 69 -276 25 -24 46
-47 46 -53 0 -5 4 -9 8 -9 4 0 36 -27 71 -60 59 -56 83 -68 162 -84 14 -3 31
-17 39 -31 8 -16 25 -27 47 -31 18 -3 43 -18 56 -33 22 -26 46 -41 77 -47 16
-3 96 77 105 107 4 10 10 19 15 19 13 0 16 -38 8 -115 -14 -130 -9 -324 8
-357 9 -17 18 -42 20 -57 3 -14 9 -30 15 -36 5 -5 9 -16 9 -25 0 -8 13 -42 29
-75 55 -117 234 -262 348 -282 63 -11 153 -5 189 12 32 15 38 15 92 -2 31 -9
59 -20 62 -24 4 -6 105 -39 117 -39 2 0 3 16 3 36 l0 35 33 -24 c17 -14 49
-34 70 -46 43 -24 193 -59 233 -55 50 5 54 10 48 56 -4 24 -10 45 -14 48 -10
6 -9 240 1 240 4 0 17 -13 29 -29 11 -17 29 -32 39 -36 10 -3 23 -15 30 -28 7
-12 31 -37 55 -54 24 -18 54 -42 67 -54 43 -38 126 -87 176 -105 117 -41 233
-53 288 -29 29 12 64 17 127 16 l87 -2 -11 38 c-6 21 -19 60 -29 87 -11 27
-22 60 -24 75 -2 14 -7 38 -11 53 -4 20 0 33 16 50 93 97 179 263 204 393 15
77 24 344 12 363 -3 5 -8 48 -11 96 -3 48 -21 146 -39 217 -32 129 -33 160 -3
116 9 -12 30 -38 47 -57 17 -19 48 -55 68 -79 20 -24 57 -67 82 -96 25 -28 63
-76 85 -106 22 -29 56 -69 76 -89 20 -19 45 -50 54 -69 9 -18 45 -63 80 -100
34 -36 93 -98 130 -138 45 -47 87 -81 122 -98 50 -23 56 -24 83 -10 27 14 50
45 66 88 3 9 13 17 20 17 16 0 64 39 64 52 0 5 9 28 20 51 11 23 30 82 41 131
21 88 21 103 6 331 -1 18 3 29 9 28 58 -11 194 2 239 22 73 33 89 66 81 159
-6 77 -3 86 32 105 13 7 33 32 43 56 11 24 30 52 43 62 12 10 35 37 49 60 15
24 40 49 56 57 35 18 40 38 37 130 -1 51 -9 83 -25 114 -31 60 -23 76 33 69
25 -4 47 -2 54 5 9 9 196 13 367 8 101 -3 203 41 206 89 0 9 2 24 4 34 2 9 0
29 -4 45 -6 18 -3 38 10 62 53 105 62 138 55 194 -8 71 -51 191 -85 237 -25
35 -73 78 -136 124 -26 19 -28 27 -30 85 -1 60 -6 72 -54 150 -69 111 -79 121
-186 194 -127 86 -164 102 -315 132 -122 25 -198 32 -323 30 -124 -1 -137 4
-90 39 14 11 31 25 37 30 37 34 106 85 115 85 6 0 11 6 11 13 0 6 18 31 40 55
63 69 112 178 116 259 2 37 9 91 15 118 9 43 16 80 23 120 1 6 5 15 9 22 4 6
5 37 2 67 -6 60 -3 68 56 151 77 108 113 178 134 258 16 61 19 91 13 117 -13
52 -15 81 -8 120 10 57 -15 110 -87 188 -18 19 -33 45 -33 56 0 21 -89 149
-120 173 -8 6 -38 19 -67 29 -45 16 -59 16 -122 5 -39 -7 -73 -16 -76 -21 -3
-4 -20 -11 -39 -14 -19 -4 -56 -22 -83 -40 -66 -46 -90 -52 -98 -27 -15 49
-142 76 -205 44 -14 -7 -30 -13 -36 -13 -16 0 -185 -88 -221 -116 -18 -14 -33
-21 -33 -16 0 16 88 199 115 238 21 32 25 47 23 93 l-3 56 -70 38 c-63 34 -74
37 -107 29 -32 -8 -39 -7 -59 14 -33 35 -106 65 -168 70 -31 2 -78 9 -106 16
-27 7 -84 13 -125 12 -90 -1 -164 -30 -232 -91 -24 -21 -60 -51 -80 -66 -21
-16 -38 -35 -38 -43 0 -7 -5 -14 -10 -14 -6 0 -37 -37 -70 -82 -33 -46 -64
-87 -68 -93 -4 -5 -11 -19 -15 -29 -7 -17 -21 -15 -23 2 -6 71 -59 237 -118
370 -75 167 -172 278 -308 348 -45 24 -89 44 -97 44 -8 0 -30 6 -49 13 -27 9
-36 9 -39 0 -3 -9 -12 -9 -29 -2 -30 11 -29 11 -37 3z"/>
</g>
</svg>
